HIERARCHY
ROOT root
{
	OFFSET 0.000000 0.000000 0.000000
	CHANNELS 6 Xposition Yposition Zposition Zrotation Yrotation Xrotation
	JOINT lhip
	{
		OFFSET 0.058581 -0.082280 -0.017664
		CHANNELS 3 Zrotation Yrotation Xrotation
		JOINT lknee
		{
			OFFSET 0.043451 -0.386469 0.008037
			CHANNELS 3 Zrotation Yrotation Xrotation
			JOINT lankle
			{
				OFFSET -0.014790 -0.426874 -0.037428
				CHANNELS 3 Zrotation Yrotation Xrotation
				JOINT ltoe
				{
					OFFSET 0.041054 -0.060286 0.122042
					CHANNELS 3 Zrotation Yrotation Xrotation
					End Site
					{
						OFFSET 0.000000 0.000000 0.000000
					}
				}
			}
		}
	}
	JOINT rhip
	{
		OFFSET -0.060310 -0.090513 -0.013543
		CHANNELS 3 Zrotation Yrotation Xrotation
		JOINT rknee
		{
			OFFSET -0.043257 -0.383688 -0.004843
			CHANNELS 3 Zrotation Yrotation Xrotation
			JOINT rankle
			{
				OFFSET 0.019056 -0.420046 -0.034562
				CHANNELS 3 Zrotation Yrotation Xrotation
				JOINT rtoe
				{
					OFFSET -0.034840 -0.062106 0.130323
					CHANNELS 3 Zrotation Yrotation Xrotation
					End Site
					{
						OFFSET 0.000000 0.000000 0.000000
					}
				}
			}
		}
	}
	JOINT lowerback
	{
		OFFSET 0.004439 0.124404 -0.038385
		CHANNELS 3 Zrotation Yrotation Xrotation
		JOINT upperback
		{
			OFFSET 0.004488 0.137956 0.026820
			CHANNELS 3 Zrotation Yrotation Xrotation
			JOINT chest
			{
				OFFSET -0.002265 0.056032 0.002855
				CHANNELS 3 Zrotation Yrotation Xrotation
				JOINT lowerneck
				{
					OFFSET -0.013390 0.211636 -0.033468
					CHANNELS 3 Zrotation Yrotation Xrotation
					JOINT upperneck
					{
						OFFSET 0.010113 0.088937 0.050410
						CHANNELS 3 Zrotation Yrotation Xrotation
						End Site
						{
							OFFSET 0.000000 0.000000 0.000000
						}
					}
				}
				JOINT lclavicle
				{
					OFFSET 0.071702 0.114000 -0.018898
					CHANNELS 3 Zrotation Yrotation Xrotation
					JOINT lshoulder
					{
						OFFSET 0.122921 0.045205 -0.019046
						CHANNELS 3 Zrotation Yrotation Xrotation
						JOINT lelbow
						{
							OFFSET 0.255332 -0.015649 -0.022946
							CHANNELS 3 Zrotation Yrotation Xrotation
							JOINT lwrist
							{
								OFFSET 0.265709 0.012698 -0.007375
								CHANNELS 3 Zrotation Yrotation Xrotation
								End Site
								{
									OFFSET 0.000000 0.000000 0.000000
								}
							}
						}
					}
				}
				JOINT rclavicle
				{
					OFFSET -0.082954 0.112472 -0.023707
					CHANNELS 3 Zrotation Yrotation Xrotation
					JOINT rshoulder
					{
						OFFSET -0.113228 0.046853 -0.008472
						CHANNELS 3 Zrotation Yrotation Xrotation
						JOINT relbow
						{
							OFFSET -0.260127 -0.014369 -0.031269
							CHANNELS 3 Zrotation Yrotation Xrotation
							JOINT rwrist
							{
								OFFSET -0.269108 0.006794 -0.006027
								CHANNELS 3 Zrotation Yrotation Xrotation
								End Site
								{
									OFFSET 0.000000 0.000000 0.000000
								}
							}
						}
					}
				}
			}
		}
	}
}
MOTION
Frames: 13
Frame Time: 0.033333
-2.119049 0.643236 1.016316 72.008709 0.215257 88.858565 -2.908134 -9.045502 -4.862632 -10.913702 -19.301203 20.391482 -0.675136 -1.830812 -6.782777 0.000000 -0.000000 0.000000 1.489007 -0.623732 -4.228776 -2.672279 1.053621 13.594099 4.559906 -8.466756 -3.249003 0.000000 -0.000000 0.000000 -1.960065 2.787242 9.961275 1.400072 -3.285657 -0.467210 0.697087 -0.687907 0.042214 -2.712048 10.054483 -7.617502 -0.834373 5.175946 -2.111334 -20.711436 -15.651841 -1.516970 -44.830868 -23.059912 13.570105 6.549000 -41.032171 3.381800 11.980253 -10.134125 -9.096177 21.797661 10.034385 3.491785 49.781416 2.733926 15.490310 -14.572215 35.981076 -1.144532 -3.586904 5.526898 -5.771972 
-2.120965 0.638977 1.012869 78.713783 -0.441339 89.910105 -2.421056 -7.391779 -7.574049 -11.419427 -13.453548 22.263094 -0.358935 -0.986434 -9.711274 0.000000 -0.000000 0.000000 1.198915 -2.395891 -4.056011 -3.053448 -1.002252 12.590871 4.355758 -9.822822 -5.024385 0.000000 -0.000000 0.000000 -2.278511 3.486497 10.242667 0.963112 -3.281738 -1.419574 0.164890 -0.435428 0.208962 -2.206349 6.198759 -7.535662 0.192795 1.087816 -1.852775 -20.987472 -14.571158 -1.255737 -44.268738 -22.322740 14.064966 2.887801 -41.555768 7.747777 8.324347 -10.542741 -9.192401 22.182781 9.626836 3.244765 48.612229 2.394216 14.464158 -13.152941 32.572808 -0.765191 -0.893304 4.999755 -4.852369 
-2.123417 0.635169 1.009348 85.022330 -0.884451 90.649560 -1.477804 -5.956852 -10.157929 -11.775915 -9.314865 24.793650 0.558866 0.567593 -12.933576 0.000000 -0.000000 0.000000 1.393373 -3.934125 -3.753223 -3.400365 -2.626064 11.629569 3.771100 -11.713748 -6.681413 0.000000 -0.000000 0.000000 -2.598456 4.227674 10.391867 0.723511 -3.198846 -1.212600 -0.170890 -0.334458 0.407665 -1.440599 2.396260 -7.677262 1.036259 -2.797882 -2.305919 -21.586509 -13.793486 -1.196231 -42.967317 -21.603464 13.612757 -0.219692 -39.788946 11.408175 5.620018 -9.780916 -7.384083 22.427727 9.618731 2.859881 47.511199 2.095549 13.474308 -12.469020 28.734555 0.057096 0.465396 3.681070 -2.363689 
-2.126057 0.632409 1.006645 90.825615 -1.154484 90.894763 -0.323170 -4.541274 -12.039988 -9.355351 -4.765580 26.822763 1.949141 4.334820 -14.536739 0.000000 -0.000000 0.000000 1.895029 -4.684297 -3.088192 -3.865621 -4.633649 10.669054 2.873440 -13.915429 -7.782950 0.000000 -0.000000 0.000000 -2.867765 4.312231 11.647399 0.407036 -2.991242 -1.733899 -0.156875 -0.223506 0.811732 -0.713540 -1.090633 -8.082772 2.099939 -5.687848 -2.600984 -22.197607 -13.295778 -0.747677 -42.036577 -20.438601 12.143805 -0.434805 -35.281514 12.231358 3.328296 -8.721510 -5.118569 22.727652 10.366044 2.813248 46.551498 2.005094 12.668989 -12.088609 24.704311 1.741015 1.581867 2.340196 1.001115 
-2.128456 0.631547 1.005295 95.708393 -1.490867 91.167579 0.785839 -3.246615 -13.094520 -5.739729 -1.426895 26.437722 4.023382 8.629311 -16.132950 0.000000 -0.000000 0.000000 2.150011 -5.144587 -2.878799 -4.180600 -5.749040 10.225617 2.255611 -16.024791 -8.408528 0.000000 -0.000000 0.000000 -3.132256 4.308107 12.692559 0.064821 -2.860183 -2.016145 -0.008813 -0.106985 1.306834 -0.035529 -4.225069 -9.013051 2.899844 -7.849677 -2.567329 -23.168572 -12.864381 -0.234743 -41.636248 -19.670164 9.528409 1.477632 -27.101169 9.013751 4.595478 -8.314379 -2.052429 23.275875 11.334371 2.776827 45.426618 2.914141 11.898117 -11.470286 20.653277 2.724723 -0.759842 2.637694 5.370509 
-2.130759 0.632063 1.005334 99.436671 -1.639205 91.586887 1.919904 -2.790692 -12.857240 -3.014306 -0.960836 22.815581 4.795796 10.506941 -13.632941 0.000000 -0.000000 0.000000 2.442133 -5.431139 -3.353449 -4.532234 -6.695867 10.507636 1.207071 -17.481696 -8.601328 0.000000 -0.000000 0.000000 -3.047234 4.150110 13.433050 -0.344628 -2.630707 -1.964478 0.166860 -0.101172 1.482495 0.229994 -6.539628 -9.412827 3.835219 -9.365998 -3.207930 -24.322363 -12.332712 0.190755 -41.650089 -18.331016 6.485506 5.151863 -17.392952 3.003830 8.491676 -7.875953 0.039756 23.335286 12.428377 2.719468 45.182821 3.983552 11.255927 -11.584006 18.517010 3.620422 -4.116318 3.130291 7.982222 
-2.133291 0.635274 1.005338 102.785813 -1.679874 92.248969 2.547101 -2.866504 -12.551174 -1.592363 -3.239427 18.283710 3.244469 9.630267 -7.632493 0.000000 -0.000000 0.000000 2.606337 -5.598029 -4.265933 -4.882053 -7.521779 10.971283 -0.067612 -18.584031 -8.406252 0.000000 -0.000000 0.000000 -2.557017 3.421402 13.927326 -0.827912 -2.595698 -1.833020 0.346973 -0.147442 1.279875 0.347813 -8.252057 -9.565549 4.564095 -10.300858 -3.324945 -25.307212 -11.177193 0.672902 -42.501957 -16.178823 3.789446 10.020003 -9.432161 -3.752860 13.710100 -6.461205 0.289927 23.360365 13.371717 2.825998 44.811699 5.422266 10.533004 -11.772022 18.455119 3.631706 -7.606350 3.943087 7.621350 
-2.135354 0.641034 1.004797 104.951704 -1.723350 92.878311 3.010851 -2.978763 -11.782622 -2.213040 -7.192782 15.332004 0.281769 7.443414 -7.367071 0.000000 -0.000000 0.000000 2.221134 -5.742270 -5.274314 -4.884358 -8.048964 11.753797 -0.553021 -19.051044 -8.330407 0.000000 -0.000000 0.000000 -2.169421 3.165629 13.643070 -0.983067 -2.425865 -0.923758 0.497585 -0.274254 1.340438 1.014454 -9.715772 -9.463636 4.694263 -10.818031 -4.332722 -26.421393 -8.862945 0.788407 -43.285468 -13.482327 1.987190 13.573173 -7.599208 -8.838571 16.501207 -2.980067 0.651206 23.580757 13.879705 2.377960 43.745847 7.457142 9.915654 -11.817919 19.909066 2.351119 -8.531293 4.091182 6.812841 
-2.136632 0.647996 1.004653 105.491162 -1.821570 93.755830 3.024806 -2.665090 -10.872967 -1.985484 -8.961611 11.873361 -1.442155 6.082940 -7.025669 0.000000 -0.000000 0.000000 1.497732 -5.527055 -6.593491 -4.821223 -8.614181 12.642405 -0.063567 -18.802870 -8.715838 0.000000 -0.000000 0.000000 -1.961895 2.713713 13.685126 -0.933261 -1.750915 -1.264522 0.254740 0.303657 1.307529 1.942136 -9.404896 -9.838497 3.469407 -12.466715 -4.053575 -26.279861 -4.571437 0.086102 -43.141598 -9.955575 2.636662 10.827761 -10.444083 -4.689132 12.395193 -2.997523 0.786836 24.233843 13.058879 1.629107 43.009738 10.235249 10.170243 -11.962189 21.980682 0.676029 -7.377964 4.132270 5.544978 
-2.138161 0.656074 1.005809 104.605220 -1.813347 94.413383 2.331340 -1.668404 -9.633727 -1.442330 -8.934974 8.618781 -1.419462 5.719496 -6.428651 0.000000 -0.000000 0.000000 0.750982 -4.849083 -7.647661 -4.740724 -9.006208 13.215020 0.512647 -18.650060 -8.336137 0.000000 -0.000000 0.000000 -2.022735 2.962978 13.326514 -0.471033 -0.794367 -0.683063 0.177066 1.052870 1.182050 2.650335 -8.663785 -9.890844 2.410719 -13.938257 -4.847619 -25.340960 -2.747039 0.738382 -42.329334 -5.828783 5.622525 4.455771 -13.579690 6.241290 6.538274 -4.924840 4.265780 24.818306 12.861038 1.520345 42.281674 12.691633 9.959071 -12.777390 25.309213 -1.863871 -7.015874 4.899396 4.699040 
-2.138409 0.664103 1.007261 102.903948 -1.667309 94.627366 1.405521 0.311773 -8.622305 -1.419814 -9.544847 6.911855 0.505227 6.810369 -5.143084 0.000000 -0.000000 0.000000 -0.075001 -5.971046 -8.073108 -3.968096 -7.867880 13.254173 0.801706 -17.451576 -7.828018 0.000000 -0.000000 0.000000 -2.004500 3.238456 13.434094 0.041620 0.014155 -0.517379 0.129272 1.730065 0.890771 2.618298 -7.921233 -9.548492 1.497579 -15.049478 -4.867457 -24.009598 -2.381687 2.998146 -42.537974 -2.126817 8.879327 -2.612338 -15.370026 24.890646 3.161680 -5.881558 2.420505 25.394350 13.836202 3.935633 42.071437 15.375845 8.747746 -14.112565 29.153096 -1.670620 -10.644655 6.074986 0.795601 
-2.139608 0.672748 1.008760 100.399675 -1.302134 94.766110 0.660310 0.989850 -7.912710 -0.864807 -7.999217 6.091083 1.252607 7.283517 -5.160426 0.000000 -0.000000 0.000000 -0.456364 -5.740198 -8.213414 -4.010791 -7.509885 12.686371 1.258675 -16.386875 -7.433966 0.000000 -0.000000 0.000000 -1.515513 4.018295 13.322389 0.313955 0.738105 0.007939 0.221152 2.168015 0.638861 2.477214 -7.128983 -9.506209 0.240114 -15.415244 -4.705945 -23.333798 -2.648583 4.287459 -44.574320 0.831945 11.369180 -7.173766 -14.959242 33.627515 -1.653486 -6.247914 4.132100 25.375451 14.971273 4.795968 42.847716 17.360066 9.052218 -15.563259 32.566422 -3.161525 -10.374183 6.737370 0.338065 
-2.140534 0.682143 1.009832 98.135425 -1.047236 94.760749 0.063628 0.981729 -7.458235 -0.712216 -6.695847 5.958420 1.935581 7.808809 -5.163999 0.000000 -0.000000 0.000000 -0.810780 -5.603174 -8.070534 -4.316364 -7.411045 11.861440 1.109799 -15.288206 -7.235651 0.000000 -0.000000 0.000000 -0.860767 4.552441 13.165849 0.372207 1.197374 0.379328 0.276016 2.232384 0.462517 2.354083 -6.334868 -9.227533 -0.842391 -15.024018 -4.146780 -23.829269 -2.086215 5.435090 -47.509095 3.395867 12.261240 -8.548387 -14.383835 36.428760 -6.155557 -6.281431 2.057385 25.635934 15.694010 5.553854 44.110541 19.600123 9.911116 -16.024399 34.817452 -2.823537 -9.976267 7.578528 -0.527167 
